<?xml version="1.0" encoding="UTF-8" standalone="no"?>
<svg
   width="450"
   height="377.80099"
   viewBox="586 344 450 377.801"
   fill="none"
   version="1.1"
   id="svg1"
   xmlns="http://www.w3.org/2000/svg"
   xmlns:svg="http://www.w3.org/2000/svg">
  <defs
     id="defs1">
    <rect
       x="348.06528"
       y="41.679153"
       width="92.226212"
       height="179.13168"
       id="rect2" />
  </defs>
  <g
     id="g1"
     transform="translate(1.2708142,15.518667)">
    <path
       d="m 849.81507,658.82661 c -6.801,0.809 -14.474,-4.194 -15.128,-12.035 -0.625,-7.49 5.157,-15.311 12.129,-16.003 6.668,-0.662 14.803,4.663 14.803,12.466 0.814,7.737 -4.524,14.706 -11.804,15.572 z m 111.318,-56.684 c -2.649,-3.391 -2.783,-7.803 -1.371,-10.793 -1.545,0.103 -44.893,6.828 -48.464,7.377 -9.496,9.842 -20.228,18.291 -32.445,24.839 -1.562,0.837 -3.362,1.233 -5.892,2.131 -2.35,-0.666 -5.541,-0.947 -8.027,-2.416 -4.207,-2.487 -8.394,-3.922 -13.215,-2.764 -6.599,1.584 -13.352,2.784 -19.686,5.11 -3.001,1.101 -5.794,4.036 -7.606,6.833 -3.855,5.951 -8.605,8.988 -15.883,7.964 -8.348,-1.175 -16.853,-1.455 -25.101,-3.074 -11.232,-2.206 -22.436,-8.548 -32.505,-13.796 -2.245,0.219 -49.508,7.409 -52.719,7.951 1.654,1.954 3.143,4.83 2.612,7.529 -0.79,4.023 -2.373,7.935 -3.97,11.743 -1.685,4.017 -1.656,4.74 2.021,7.179 0.45,0.299 0.896,0.604 1.342,0.909 1.785,1.214 3.228,1.389 5.048,-0.384 2.566,-2.502 5.522,-4.624 8.421,-6.76 3.153,-2.322 6.753,-3.061 10.181,-0.985 3.924,2.377 6.252,5.825 5.226,10.813 -0.722,3.514 -0.952,7.148 -1.909,10.587 -0.778,2.791 0.792,3.847 2.681,4.5 2.176,0.753 4.474,3.277 6.857,0.159 1.813,-2.372 3.623,-4.77 5.671,-6.934 3.44,-3.637 7.48,-6.556 12.716,-4.319 4.278,1.828 6.413,5.632 6.53,10.321 0.063,2.586 -0.195,5.181 -0.298,7.772 -0.105,2.6 -0.453,4.974 3.284,5.825 5.07,1.155 6.12,1.17 7.961,-2.33 1.205,-2.289 2.076,-4.818 3.607,-6.858 1.656,-2.208 3.568,-4.785 5.961,-5.773 6.267,-2.588 11.828,0.858 13.423,7.026 0.93,3.6 1.888,7.214 2.463,10.879 0.319,2.033 1.189,2.728 3.06,2.76 1.005,0.017 2.008,0.303 3.012,0.307 2.321,0.01 3.914,-0.433 4.586,-3.361 0.92,-4.001 2.331,-8.037 4.334,-11.61 3.608,-6.437 11.718,-7.062 16.121,-1.466 2.545,3.236 3.905,7.471 5.461,11.389 1.264,3.184 3.276,3.893 6.434,3.314 3.181,-0.581 4.261,-2.303 4.618,-5.399 0.499,-4.32 1.25,-8.685 2.572,-12.815 1.328,-4.146 7.336,-6.39 11.56,-5.299 5.16,1.334 7.011,5.783 9.563,9.551 3.546,5.234 3.433,5.167 9.239,3.763 2.474,-0.598 3.124,-1.858 2.828,-4.15 -0.40415,-3.18882 -0.74388,-6.38547 -1.019,-9.588 -0.418,-4.741 2.341,-9.407 6.503,-11.133 4.529,-1.876 9.4,-0.696 12.687,2.954 1.66,1.843 3.73,3.367 5.154,5.363 2.508,3.515 4.957,2.346 7.58,0.391 0.724,-0.54 1.552,-1.025 2.071,-1.727 0.419,-0.566 0.765,-1.513 0.589,-2.133 -0.705,-2.469 -1.909,-4.823 -2.393,-7.322 -0.598,-3.095 -1.549,-6.525 -0.79,-9.4 2.003,-7.572 10.889,-10.075 17.243,-5.404 2.366,1.739 5.052,3.061 7.335,4.894 2.978,2.389 4.518,-0.013 6.291,-1.575 1.87,-1.646 2.5,-3.34 1.021,-5.936 -2.539,-4.454 -5.633,-8.729 -5.704,-14.28 -0.066,-5.219 5.653,-10.876 10.713,-9.687 4.56,1.07 8.981,2.82 13.358,4.536 3.823,1.499 4.286,-2.074 5.989,-3.672 1.456,-1.368 1.633,-2.998 0.139,-4.735 -2.451,-2.85 -4.755,-5.828 -7.069,-8.791 z"
       style="isolation:isolate;fill:#000000;fill-opacity:1;fill-rule:evenodd"
       id="path1-3" />
    <path
       d="m 628.52872,605.92898 -11.99756,2.06807 -5.44056,16.66966 -15.80323,2.72425 17.95652,-62.81399 18.53466,-3.19409 18.11978,56.59542 -15.80404,2.72345 z m 38.72649,-4.42762 16.46658,-2.83813 0.0176,13.48193 -30.36738,5.23349 -0.0812,-59.70429 13.90159,-2.39538 z m 35.663,-6.14689 16.46579,-2.83734 0.0183,13.48192 -30.36738,5.23351 -0.0812,-59.70431 13.90159,-2.39537 z m 59.44788,-42.99485 -23.82948,4.10749 0.0127,9.63006 17.54083,-3.02288 0.0183,13.48193 -17.54084,3.02288 0.0135,9.62926 23.82948,-4.10748 0.0183,13.48272 -37.73108,6.50286 -0.0812,-59.70431 37.73108,-6.50286 z m 50.28926,-22.15081 -16.50959,32.70383 0.0415,29.85294 -13.07261,2.25283 -0.0414,-29.85294 -15.84385,-27.12791 15.55478,-2.68045 7.21797,12.88308 7.09692,-15.35013 z m 20.08592,43.01236 c 2.36988,-0.24846 4.344,-1.17698 5.91277,-2.78557 1.57037,-1.607 2.76805,-3.41866 3.59226,-5.43498 l 12.00712,4.43319 c -0.49452,1.04717 -1.19689,2.40094 -2.10471,4.05414 -0.90703,1.65557 -2.18753,3.34778 -3.84151,5.07822 -1.65319,1.72883 -3.76109,3.33662 -6.32368,4.82099 -2.565,1.48596 -5.72246,2.55146 -9.47239,3.19808 l -0.0836,0.0144 c -4.1919,0.72228 -7.7101,0.68803 -10.55142,-0.1083 -2.8445,-0.79315 -5.16262,-2.11904 -6.95836,-3.97768 -1.79652,-1.85785 -3.10809,-4.14492 -3.93946,-6.86519 -0.83297,-2.72028 -1.33306,-5.61734 -1.50188,-8.69119 l -0.0175,-12.35909 c 0.0525,-2.95042 0.55743,-5.94224 1.5202,-8.96991 0.95608,-3.01954 2.40593,-5.85978 4.29064,-8.4053 1.90085,-2.57534 4.28268,-4.79233 7.15028,-6.65097 2.866,-1.85864 6.20343,-3.11526 10.00912,-3.77143 l 0.0828,-0.0144 c 3.3637,-0.57893 6.26157,-0.62512 8.69038,-0.13378 2.42723,0.49293 4.51202,1.31076 6.25122,2.45429 1.74078,1.14593 3.1487,2.53474 4.22694,4.16801 1.07903,1.63409 1.92234,3.30797 2.53074,5.02248 l -11.98959,8.56855 c -0.33048,-0.90703 -0.78838,-1.81724 -1.3681,-2.73461 -0.56674,-0.90119 -1.28123,-1.70047 -2.11347,-2.36431 -0.83352,-0.66296 -1.79076,-1.15322 -2.81584,-1.44216 -1.04877,-0.30022 -2.15328,-0.32411 -3.31195,-0.0716 -2.81265,0.69919 -5.05911,2.17081 -6.73778,4.41328 -1.68185,2.24328 -2.51879,4.83534 -2.51482,7.77779 l 0.0159,11.63524 c 0.004,2.94404 0.86243,5.26933 2.57614,6.98066 1.71132,1.71291 3.97609,2.43359 6.78954,2.16124 z m 56.09771,-12.15603 -11.99836,2.06807 -5.44055,16.66966 -15.80323,2.72345 17.95652,-62.81319 18.53466,-3.19489 18.11977,56.59542 -15.80404,2.72427 z m 56.03878,-53.645 0.0183,13.48113 -13.98202,2.4097 0.0629,46.22318 -13.90159,2.39616 -0.0629,-46.22318 -13.98441,2.40971 -0.0183,-13.48033 z"
       style="isolation:isolate;fill:#000000;fill-opacity:1;fill-rule:evenodd;stroke-width:0.796333"
       id="path1-9" />
    <path
       d="m 784.24265,402.37163 c -7.387,0.786 -13.404,-3.133 -14.042,-9.523 -0.861,-8.621 5.209,-14.659 13.136,-15.443 7.578,-0.749 12.372,3.67 13.375,12.307 0.58,4.987 -6.335,12.006 -12.469,12.659 z m 167.234,19.072 c -0.64,-1.652 -0.182,-2.557 1.034,-4.607 1.607,-2.711 3.218,-5.421 4.766,-8.167 0.981,-1.741 2.933,-3.872 2.518,-5.248 -0.66,-2.187 -2.734,-4.138 -4.637,-5.652 -0.601,-0.478 -2.615,0.666 -3.909,1.237 -2.366,1.044 -4.718,2.14 -7.005,3.347 -6.378,3.366 -10.354,1.56 -13.978,-1.82 -2.671,-2.49 -2.921,-7.194 -0.778,-11.973 1.108,-2.471 2.008,-5.036 3.15,-7.49 0.838,-1.801 0.77,-3.605 -1.012,-4.301 -2.33,-0.91 -4.142,-4.672 -7.461,-1.6 -2.321,2.15 -4.847,4.086 -7.336,6.049 -3.534,2.787 -8.518,3.435 -11.618,1.589 -4.845,-2.886 -6.43,-6.506 -5.281,-12.043 0.547,-2.637 0.962,-5.31 1.657,-7.908 0.765,-2.856 -1.022,-4 -3.1,-4.758 -1.915,-0.7 -3.877,-2.714 -5.95,0.245 -1.81,2.584 -4.174,4.783 -6.299,7.147 -5.373,5.975 -13.217,4.79 -16.875,-0.527 -3.199,-4.649 -1.69,-9.697 -1.861,-14.552 -0.073,-2.073 0.24,-3.857 -2.135,-4.021 -2.514,-0.174 -5.415,-3.256 -7.599,1.08 -2.018,4.008 -4.268,8.032 -7.136,11.448 -3.322,3.954 -11.422,3.586 -14.265,-0.652 -1.79,-2.666 -2.667,-6.138 -3.246,-9.374 -1.161,-6.505 -1.106,-6.667 -7.683,-7.056 -0.638,-0.037 -1.265,-0.26 -2.357,-0.497 -1.234,3.58 -2.483,7.023 -3.605,10.506 -1.257,3.9 -3.5,6.957 -7.557,8.05 -4.561,1.229 -8.779,0.386 -11.349,-3.943 -1.81,-3.051 -3.602,-6.308 -4.414,-9.708 -1.15,-4.818 -4.2,-2.574 -6.831,-2.648 -3.205,-0.09 -3.288,2.159 -3.554,4.28 -0.419,3.337 -0.345,6.782 -1.153,10.015 -1.95,7.806 -11.617,10.583 -16.372,5.821 -2.372,-2.376 -4.517,-5.04 -6.418,-7.811 -2.759,-4.022 -3.219,-4.195 -7.767,-2.332 -2.306,0.945 -2.901,2.231 -2.705,4.695 0.328,4.136 0.98,8.554 -0.076,12.427 -2.111,7.74 -12.582,10.173 -18.865,2.957 -2.259,-2.596 -4.881,-4.877 -7.229,-7.193 -2.075,1.282 -3.82,2.153 -5.291,3.357 -0.714,0.587 -1.427,1.908 -1.256,2.705 0.566,2.623 1.506,5.168 2.36,7.723 1.808,5.411 0.639,10.354 -2.825,13.278 -3.486,2.943 -9.416,3.807 -14.041,0.036 -1.914,-1.561 -4.26,-2.582 -6.332,-3.966 -3.272,-2.186 -4.894,0.868 -6.527,2.412 -0.931,0.881 -1.034,3.408 -0.531,4.854 0.909,2.607 2.55,4.962 3.889,7.42 2.087,3.832 1.917,7.712 -0.799,10.98 -3.06,3.68 -7.105,5.593 -12.064,3.952 -2.464,-0.816 -4.929,-1.682 -7.284,-2.763 -4.818,-2.215 -6.482,-1.8 -8.614,3.006 -0.437,0.985 -0.029,2.777 0.645,3.739 2.065,2.947 4.754,5.481 6.648,8.519 4.231,6.784 0.096,15.264 -7.838,15.69 -4.316,0.232 -8.696,-0.982 -13.065,-1.273 -0.969,-0.064 -2.622,0.804 -2.905,1.611 -0.7,2.003 -3.679,3.836 -1.41,6.23 2.456,2.59 5.456,4.659 7.988,7.187 1.896,1.892 3.066,3.543 3.548,5.232 2.955,-0.445 41.907,-6.508 44.153,-6.727 3.143,-4.773 6.404,-9.48 9.879,-14.009 8.697,-11.339 19.414,-20.599 31.3,-28.41 4.632,-3.045 9.898,-5.228 15.085,-7.273 1.603,-0.632 4.291,-0.099 5.811,0.91 7.373,4.893 14.954,3.51 22.638,1.327 3.134,-0.89 6.181,-2.152 9.359,-2.804 4.523,-0.928 7.424,-4.094 9.609,-7.476 3.98,-6.164 9.293,-7.555 16.238,-7.408 10.715,0.228 21.136,1.85 31.416,4.531 12.193,3.181 23.893,7.758 34.429,14.717 6.424,4.243 13.039,9.448 18.946,14.364 3.784,-0.663 37.155,-5.509 43.132,-6.683 z"
       fill-rule="evenodd"
       style="isolation:isolate;fill:#000000;fill-opacity:1"
       class="fills"
       data-testid="svg-path"
       id="path1" />
    <path
       d="m 631.88049,533.09857 c -0.0956,1.73043 -0.59646,3.42503 -1.50189,5.08061 -0.90702,1.65717 -2.15647,3.18294 -3.74914,4.57573 -1.59426,1.39278 -3.52058,2.6048 -5.7774,3.63765 -2.25681,1.03125 -4.80906,1.79334 -7.65595,2.28389 -2.20902,0.38065 -4.28427,0.45231 -6.22254,0.2158 -1.94067,-0.2373 -3.69579,-0.74457 -5.26855,-1.5202 -1.54224,-0.75281 -2.91054,-1.81896 -4.0175,-3.13039 -1.10611,-1.30838 -1.90722,-2.87237 -2.40015,-4.69279 l 11.77459,-6.81502 c -0.0988,0.0653 0.012,0.37985 0.33286,0.94286 0.31854,0.5638 0.77483,1.14114 1.36492,1.72963 0.58928,0.5885 1.31395,1.08222 2.17479,1.48198 0.85844,0.39976 1.7798,0.44277 2.76168,0.13139 0.83297,-0.2389 1.65558,-0.73819 2.46466,-1.4963 0.80986,-0.75811 1.18812,-1.79972 1.13795,-3.12561 -0.0509,-0.80032 -0.38383,-1.49313 -0.997,-2.07763 -0.61557,-0.58372 -1.48756,-1.16027 -2.61676,-1.72805 -2.50526,-1.18574 -4.82817,-2.20266 -6.96473,-3.04916 -2.13656,-0.84571 -4.00476,-1.79812 -5.60141,-2.85565 -1.59745,-1.05753 -2.85007,-2.34123 -3.76028,-3.85266 -0.9126,-1.50826 -1.36811,-3.52458 -1.37129,-6.04816 -0.003,-2.33325 0.48337,-4.46424 1.46445,-6.39535 0.97489,-1.92507 2.29571,-3.6543 3.89646,-5.10132 1.61895,-1.46763 3.48157,-2.69399 5.59185,-3.67667 2.08839,-0.9759 4.28903,-1.69082 6.55224,-2.12859 2.69798,-0.46586 5.06866,-0.50568 7.10648,-0.11865 2.03702,0.38781 3.7571,1.03124 5.15785,1.9327 1.40075,0.90065 2.49412,2.01073 3.28249,3.32628 0.78677,1.31872 1.3036,2.66931 1.55205,4.05493 l -10.81739,6.00674 c -0.17477,-0.56299 -0.3975,-1.10994 -0.66574,-1.63487 -0.30078,-0.59915 -0.7145,-1.13454 -1.21839,-1.57674 -0.51522,-0.45789 -1.13079,-0.81544 -1.84271,-1.07505 -0.71113,-0.25722 -1.53453,-0.30659 -2.46705,-0.14573 -0.98267,0.16962 -1.87695,0.62114 -2.68523,1.35456 -0.80908,0.73581 -1.21441,1.69937 -1.21282,2.88831 0.002,0.90462 0.38224,1.63725 1.14593,2.19548 0.76049,0.56062 1.9534,1.27096 3.57474,2.13418 2.18993,0.82213 4.36404,1.68579 6.52117,2.59047 2.0872,0.87836 3.94265,1.96217 5.56398,3.25462 1.60329,1.26973 2.93326,2.85053 3.91,4.6474 0.98427,1.80609 1.478,4.06687 1.48198,6.77998 z m 40.22121,-47.7163 0.0167,11.99677 -12.44271,2.14372 0.0565,41.13302 -12.37104,2.13257 -0.0557,-41.13301 -12.4443,2.14453 -0.0159,-11.99596 z m 37.56783,5.52416 -21.20478,3.65517 0.012,8.56935 15.60814,-2.69002 0.0167,11.99756 -15.60893,2.69002 0.012,8.56855 21.20476,-3.65518 0.0167,11.99756 -33.57581,5.78697 -0.0725,-53.12898 33.57581,-5.78697 z m 38.43503,-6.62389 -21.20557,3.65517 0.012,8.56934 15.60893,-2.69081 0.0159,11.99756 -15.60893,2.69081 0.012,8.56775 21.20556,-3.65437 0.0159,11.99756 -33.57581,5.78695 -0.0724,-53.12898 33.5758,-5.78695 z m 17.26849,26.16592 14.65253,-2.52517 0.0159,11.99756 -27.02278,4.65695 -0.0716,-53.12818 12.37024,-2.13258 z m 60.96569,-10.29262 c 2.10949,-0.22137 3.86541,-1.04717 5.26138,-2.47898 1.39757,-1.43021 2.46306,-3.04199 3.19728,-4.83613 l 10.68441,3.94503 c -0.44038,0.93172 -1.0647,2.13657 -1.87298,3.60739 -0.80668,1.47323 -1.94704,2.97909 -3.41866,4.5192 -1.47083,1.53771 -3.34619,2.96952 -5.62689,4.28985 -2.2823,1.32271 -5.09176,2.27034 -8.42999,2.84609 l -0.0733,0.012 c -3.73083,0.64343 -6.86121,0.61238 -9.38957,-0.0956 -2.53154,-0.70636 -4.59405,-1.88572 -6.19229,-3.53971 -1.59824,-1.65398 -2.76567,-3.68861 -3.50546,-6.10867 -0.74138,-2.42085 -1.18653,-4.99858 -1.33704,-7.73479 l -0.0144,-10.99736 c 0.0462,-2.62551 0.49532,-5.28845 1.35218,-7.98245 0.85054,-2.68712 2.14056,-5.21468 3.81762,-7.47996 1.69142,-2.29184 3.81126,-4.26436 6.3635,-5.91755 2.54986,-1.65478 5.52098,-2.77284 8.9062,-3.35655 l 0.0741,-0.012 c 2.99262,-0.51683 5.57194,-0.55664 7.73319,-0.11946 2.15966,0.43799 4.01511,1.16584 5.56239,2.18355 1.54887,1.01931 2.80229,2.25601 3.76187,3.70932 0.9596,1.45411 1.70974,2.94325 2.25204,4.46903 l -10.66848,7.62489 c -0.3183,-0.85227 -0.72675,-1.6681 -1.21839,-2.43359 -0.50464,-0.80176 -1.14049,-1.51298 -1.88093,-2.10392 -0.74159,-0.58979 -1.59327,-1.0259 -2.50527,-1.28289 -0.93331,-0.26757 -1.91598,-0.28827 -2.94724,-0.0637 -2.50287,0.62194 -4.50247,1.93111 -5.99559,3.92673 -1.49631,1.9964 -2.24167,4.30338 -2.23769,6.92172 l 0.0144,10.35313 c 0.003,2.61994 0.76767,4.68882 2.29184,6.2122 1.52259,1.52419 3.53812,2.16524 6.04178,1.92315 z m 36.46332,-47.63985 0.0725,53.12819 -12.37104,2.13258 -0.0725,-53.12898 z m 41.67372,-7.18293 0.0167,11.99597 -12.44271,2.14453 0.0565,41.13302 -12.37105,2.13257 -0.0557,-41.13301 -12.44351,2.14452 -0.0176,-11.99596 z m 43.88435,-7.56357 -14.69077,29.10281 0.0359,26.56488 -11.63284,2.00437 -0.0359,-26.56489 -14.09909,-24.14005 13.84108,-2.38501 6.42322,11.46321 6.31572,-13.65871 z"
       style="isolation:isolate;fill:#000000;fill-opacity:1;fill-rule:evenodd;stroke-width:0.796333"
       id="path1-98" />
    <text
       xml:space="preserve"
       transform="matrix(3.0436728,-0.54311117,0,3.0436728,-206.30052,464.68349)"
       id="text2"
       style="font-size:53.3333px;font-family:'Blackout Midnight';-inkscape-font-specification:'Blackout Midnight';text-align:center;letter-spacing:10px;word-spacing:0.2px;writing-mode:lr-tb;direction:ltr;white-space:pre;shape-inside:url(#rect2);display:inline;fill:#000000;stroke-width:3.77953"><tspan
         x="380.60444"
         y="101.60806"
         id="tspan1">5</tspan></text>
  </g>
  <path
     style="display:none;fill:#000000;stroke:#ff0000;stroke-width:1;stroke-dasharray:none;stroke-opacity:1"
     d="M 591.37453,644.37531 1034.3895,567.4935"
     id="path2" />
  <path
     style="display:none;fill:#000000;stroke:#ff0000;stroke-width:1;stroke-dasharray:none;stroke-opacity:1"
     d="M 591.37453,515.20186 1034.3895,438.32005"
     id="path3" />
</svg>
